<svg version="1.1" xmlns="http://www.w3.org/2000/svg" xmlns:xlink="http://www.w3.org/1999/xlink" width="100px" height="100px" viewBox="0,0,256,256"><g fill="none" fill-rule="none" stroke="none" stroke-width="1" stroke-linecap="butt" stroke-linejoin="miter" stroke-miterlimit="10" stroke-dasharray="" stroke-dashoffset="0" font-family="none" font-weight="none" font-size="none" text-anchor="none" style="mix-blend-mode: normal"><g transform="scale(2.56,2.56)"><circle cx="50" cy="50" r="49.53" fill="#007676" fill-rule="nonzero"></circle><path d="M43.13,33.07v0c-1.27501,1.27677 -1.99386,3.00563 -2,4.81v2.72c0,3.75554 3.04446,6.8 6.8,6.8c3.75554,0 6.8,-3.04446 6.8,-6.8v-2.71c0.00266,-1.80429 -0.71291,-3.53544 -1.98874,-4.81126c-1.27582,-1.27582 -3.00698,-1.9914 -4.81126,-1.98874c-1.79957,-0.00419 -3.52675,0.70827 -4.8,1.98zM52,37.89v2.72c0.02277,1.66976 -0.97673,3.18401 -2.52105,3.81939c-1.54432,0.63538 -3.32006,0.26294 -4.47895,-0.93939v0c-0.76025,-0.76597 -1.18783,-1.8008 -1.19,-2.88v-2.72c-0.01167,-1.08485 0.41782,-2.12791 1.19,-2.89v0c0.76597,-0.76025 1.8008,-1.18783 2.88,-1.19c1.08739,-0.00532 2.13236,0.42155 2.90501,1.18671c0.77265,0.76515 1.2097,1.8059 1.21499,2.89329z" fill="#ffffff" fill-rule="evenodd"></path><path d="M58.17,52.16c-1.27677,-1.27501 -3.00563,-1.99386 -4.81,-2h-10.88c-1.80429,-0.00266 -3.53544,0.71291 -4.81126,1.98874c-1.27582,1.27582 -1.9914,3.00698 -1.98874,4.81126c0,0.75111 0.60889,1.36 1.36,1.36c0.75111,0 1.36,-0.60889 1.36,-1.36c0.01094,-2.24877 1.83123,-4.06906 4.08,-4.08h10.88c1.08739,0.00529 2.12814,0.44234 2.89329,1.21499c0.76515,0.77265 1.19202,1.81762 1.18671,2.90501c0,0.75111 0.60889,1.36 1.36,1.36c0.75111,0 1.36,-0.60889 1.36,-1.36c0.00445,-1.81333 -0.71133,-3.55423 -1.99,-4.84z" fill="#ffffff" fill-rule="evenodd"></path><path d="M56.26,75.06c-2.53202,1.873 -5.20687,3.54478 -8,5c-0.18166,0.07962 -0.38834,0.07962 -0.57,0c-6.1201,-3.09671 -11.61561,-7.29717 -16.21,-12.39c-3.75,-4.38 -6.68,-9.81 -6.68,-16.18v-10.84c0.04402,-0.51189 -0.20419,-1.00488 -0.64161,-1.27439c-0.43742,-0.2695 -0.98937,-0.2695 -1.42679,0c-0.43742,0.2695 -0.68562,0.7625 -0.64161,1.27439v10.84c0,7 3.17,13.1 7.32,17.95c4.82204,5.3386 10.58449,9.74518 17,13v0c0.94522,0.4681 2.05478,0.4681 3,0v0c2.94501,-1.51371 5.76697,-3.2557 8.44,-5.21c0.43378,-0.26912 0.68033,-0.75849 0.63845,-1.26725c-0.04188,-0.50876 -0.36514,-0.95122 -0.8371,-1.14578c-0.47195,-0.19455 -1.01311,-0.10843 -1.40135,0.22302z" fill="#ffffff" fill-rule="evenodd"></path><path d="M23.44,36.57c0.75111,0 1.36,-0.60889 1.36,-1.36v-3.5c0.00496,-0.36579 0.29453,-0.66413 0.66,-0.68v0c7.96965,-0.47499 15.62985,-3.2542 22.05,-8c0.23506,-0.16105 0.54494,-0.16105 0.78,0v0c6.42742,4.70438 14.05425,7.4951 22,8.05v0c0.3622,0.01082 0.65016,0.30764 0.65,0.67v0v19.74c0.00243,0.86588 -0.05102,1.73101 -0.16,2.59c-0.09389,0.74558 0.43442,1.42611 1.18,1.52c0.74558,0.09389 1.42611,-0.43442 1.52,-1.18c0.12095,-0.97197 0.18107,-1.95054 0.18,-2.93v-19.78c0.00178,-1.8152 -1.42658,-3.30968 -3.24,-3.39c-7.45348,-0.51717 -14.60721,-3.1387 -20.63,-7.56c-1.1761,-0.82609 -2.7439,-0.82609 -3.92,0c-5.9969,4.46089 -13.16044,7.08382 -20.62,7.55c-1.81736,0.07512 -3.25155,1.57109 -3.25,3.39v3.5c-0.00644,0.37766 0.14563,0.74074 0.41928,1.00109c0.27365,0.26035 0.64385,0.39415 1.02072,0.36891z" fill="#ffffff" fill-rule="evenodd"></path></g></g></svg>